<svg width="24" height="25" viewBox="0 0 24 25" fill="none" xmlns="http://www.w3.org/2000/svg">
<g clip-path="url(#clip0_25266_2)">
<path d="M13.8943 0.516602C15.5417 0.519833 16.0121 0.533683 17.0521 0.593037C18.3697 0.631747 19.2223 0.825295 19.9974 1.13497C20.7725 1.44465 21.4313 1.83175 22.0902 2.48981C22.749 3.14788 23.1753 3.80594 23.4466 4.61884C23.7179 5.43175 23.9504 6.32207 23.9891 7.56078C24.0279 8.87691 23.9504 9.30272 23.9504 12.593L23.9501 14.2489C23.95 14.3249 23.95 14.3984 23.9499 14.4698L23.9493 14.8718C23.9469 16.1923 23.9388 16.6421 23.9116 17.5092C23.8729 18.8253 23.6404 19.6769 23.3691 20.4511C23.0978 21.2253 22.6715 21.9221 22.0127 22.5801C21.3538 23.2382 20.695 23.664 19.8812 23.935C19.0673 24.2059 18.2535 24.4382 16.9358 24.4769C16.5844 24.4872 16.3019 24.4948 16.0141 24.5004L15.7961 24.5041C15.4272 24.5099 15.021 24.5127 14.4325 24.5142L14.0564 24.5149C13.9897 24.515 13.9208 24.5151 13.8497 24.5151L10.3208 24.515C8.50278 24.5125 8.06872 24.5001 7.0146 24.4382C5.69694 24.3995 4.84433 24.1672 4.06924 23.8963C3.29415 23.6253 2.59656 23.1995 1.93773 22.5414C1.2789 21.8834 0.852601 21.2253 0.581318 20.4124C0.310036 19.5995 0.0775077 18.7866 0.038753 17.4705C0.031002 17.2072 0.0248013 16.9827 0.0198407 16.7656L0.0132912 16.4417C0.00696122 16.0792 0.00364554 15.694 0.00190876 15.1411L0.00104467 14.7881C0.000928406 14.7256 0.00082506 14.661 0.000733197 14.5944L0.00050354 11.8956C0.00516558 9.17454 0.0413366 8.78917 0.0775077 7.56078C0.116262 6.24465 0.310036 5.39304 0.620073 4.61884C0.891356 3.80594 1.31766 3.14788 1.97649 2.48981C2.63532 1.83175 3.29415 1.36723 4.10799 1.09626C4.92184 0.825295 5.73569 0.593037 7.05335 0.554328C7.97571 0.527231 8.42333 0.519102 9.73878 0.516663L13.8943 0.516602ZM14.0923 2.7228H10.0131C9.15962 2.724 8.65301 2.72713 8.19371 2.73535L7.98399 2.73951C7.74069 2.74482 7.49774 2.75175 7.20837 2.76078C6.00697 2.79949 5.3869 3.03175 4.9606 3.18659C4.41803 3.41884 4.03049 3.6511 3.60418 4.07691C3.21664 4.46401 2.94535 4.88981 2.71283 5.43175C2.55781 5.89626 2.32528 6.51562 2.28652 7.67691C2.27748 7.96594 2.27055 8.20861 2.26523 8.45162L2.26106 8.6611C2.25347 9.08459 2.25021 9.54833 2.24882 10.2877L2.24808 10.8976C2.24803 10.9719 2.24799 11.0485 2.24795 11.1276L2.24777 17.3156C2.28652 18.5156 2.51905 19.135 2.67407 19.5608C2.94535 20.1027 3.17788 20.4898 3.60418 20.9156C3.99173 21.3414 4.41803 21.6124 4.9606 21.8447C5.42565 21.9995 6.04573 22.2317 7.20837 22.2705C8.06365 22.2972 8.53183 22.3054 9.78246 22.308L10.402 22.3088C10.4776 22.3089 10.5556 22.3089 10.6361 22.309L16.8583 22.3092C18.0597 22.2705 18.6798 22.0382 19.1061 21.8834C19.6486 21.6124 20.0362 21.3801 20.4625 20.9543C20.8888 20.5672 21.1601 20.1414 21.3926 19.5995C21.5476 19.135 21.7801 18.5156 21.8189 17.3543C21.8266 17.1066 21.8344 16.8929 21.8418 16.6839L21.8492 16.4753C21.8756 15.7082 21.8964 14.8717 21.8964 12.5156L21.8961 10.8976C21.896 10.8232 21.896 10.7512 21.8959 10.6814L21.8953 10.2877C21.8929 8.99381 21.8848 8.544 21.8576 7.67691C21.8189 6.47691 21.5864 5.85755 21.4313 5.43175C21.1601 4.88981 20.9275 4.50271 20.5012 4.07691C20.1137 3.68981 19.6874 3.41884 19.1448 3.18659C18.6798 3.03175 18.0597 2.79949 16.897 2.76078C16.6077 2.75175 16.3647 2.74482 16.1214 2.73951L15.9117 2.73535C15.4524 2.72713 14.9458 2.724 14.0923 2.7228ZM12.0139 6.36078C15.4631 6.36078 18.2147 9.07046 18.2147 12.5156C18.2147 15.9608 15.3856 18.6705 12.0139 18.6705C8.64229 18.6705 5.85196 15.9608 5.85196 12.5156C5.85196 9.14788 8.56478 6.36078 12.0139 6.36078ZM12.0139 8.48981C9.80493 8.48981 7.98346 10.3092 7.98346 12.5156C7.98346 14.7221 9.76618 16.5414 12.0139 16.5414C14.2617 16.5414 16.0444 14.7608 16.0444 12.5156C16.0444 10.2705 14.2617 8.48981 12.0139 8.48981ZM18.486 4.65755C19.2779 4.65755 19.9199 5.2988 19.9199 6.08981C19.9199 6.88083 19.2779 7.52207 18.486 7.52207C17.694 7.52207 17.0521 6.88083 17.0521 6.08981C17.0521 5.2988 17.694 4.65755 18.486 4.65755Z" fill="#FE0863"/>
</g>
<defs>
<clipPath id="clip0_25266_2">
<rect width="24" height="24" fill="white" transform="translate(0 0.515625)"/>
</clipPath>
</defs>
</svg>
